<svg enable-background="new 0 0 1000 1000" version="1.1" viewBox="0 0 1e3 1e3" xml:space="preserve" xmlns="http://www.w3.org/2000/svg">

<g transform="translate(0 511) scale(.1 -.1)"><path transform="matrix(10,0,0,-10,0,5110)" d="m653.09 59.707c-40.733-0.02053-91.32 0.03664-154.37 0.07371-279.85 0-303.79 0.19782-315.57 3.2888-23.371 6.182-43.266 21.439-56.591 43.453-13.523 22.787-14.691-5.7903-12.75 435.72v398.05h283.52c184.25 0 289.13-0.77311 299.75-1.9322 52.143-6.5684 95.794-27.809 129.79-63.545 33.22-34.765 51.757-75.327 57.553-124.77 1.1591-11.205 1.9316-122.45 1.7339-312.88 0-272.9-0.19803-296.46-3.2801-308.25-6.182-23.371-21.439-43.264-43.453-56.59-18.361-10.988-9.8167-12.538-186.33-12.627zm-466.19 18.943h313.2 307.64c34.862 9.8164 47.772 32.326 53.452 53.473v303.55c0 356.16 2.6569 318.06-10.529 356.33-10.031 28.496-23.745 49.342-48.816 74.155-20.319 20.319-27.969 25.858-49.086 36.159-54.218 14.614 7.6327 17.629-321.88 18.479l-291.89 0.43164v-409.03-385.63l9.7431-14.416c5.089-7.6336 16.117-18.662 23.751-23.751z" stroke-width=".1"/><path d="m2373.9 2088.1v-1234.1h5254.3v2468.2h-5254.3zm5034.4 0v-1031.7h-4814.7v2063.4h4814.7z"/><path d="m3131-882.4c-144-73.1-193.4-184.8-193.4-440.6v-199.9h-199.9c-255.8 0-367.6-49.4-438.5-193.4-62.3-120.4-62.3-180.6 0-300.9 70.9-144 182.7-193.5 438.5-193.5h199.9v-199.9c0-255.8 49.4-367.6 193.4-438.5 120.4-62.3 180.5-62.3 300.9 0 144 70.9 193.4 182.7 193.4 438.5v199.9h199.9c255.8 0 367.5 49.4 440.6 193.5 25.8 51.6 47.3 120.4 47.3 150.4 0 30.1-21.5 98.9-47.3 150.5-73.1 144-184.8 193.4-440.6 193.4h-199.9v199.9c0 255.8-49.4 367.6-193.4 440.6-51.6 25.8-120.4 47.3-150.5 47.3s-98.8-21.5-150.4-47.3z"/><path d="m7126.7-895.3c-92.4-47.3-126.8-81.7-174.1-174.1-34.4-66.6-60.2-148.3-60.2-195.6s25.8-129 60.2-195.6c47.3-92.4 81.7-126.8 174.1-174.1 66.6-34.4 148.3-60.2 195.6-60.2s129 25.8 195.6 60.2c92.4 47.3 126.8 81.7 174.1 174.1 34.4 66.6 60.2 148.3 60.2 195.6s-25.8 128.9-60.2 195.6c-47.3 92.4-81.7 126.8-174.1 174.1-66.6 34.4-148.3 60.2-195.6 60.2s-129-25.8-195.6-60.2z"/><path d="m6267-1755c-92.4-47.3-126.8-81.7-174.1-174.1-34.4-66.6-60.2-148.3-60.2-195.6s25.8-128.9 60.2-195.6c47.3-92.4 81.7-126.8 174.1-174.1 66.6-34.4 148.3-60.2 195.6-60.2s129 25.8 195.6 60.2c92.4 47.3 126.8 81.7 174.1 174.1 34.4 66.6 60.2 148.3 60.2 195.6s-25.8 129-60.2 195.6c-47.3 92.4-81.7 126.8-174.1 174.1-66.6 34.4-148.3 60.2-195.6 60.2s-129-25.8-195.6-60.2z"/></g>
</svg>
